<svg xmlns="http://www.w3.org/2000/svg" xmlns:xlink="http://www.w3.org/1999/xlink" width="200" zoomAndPan="magnify" viewBox="0 0 375 149.999998" height="80" preserveAspectRatio="xMidYMid meet" version="1.0"><defs><g/><clipPath id="56574b94c0"><path d="M 7.5 24.976562 L 107.546875 24.976562 L 107.546875 125.023438 L 7.5 125.023438 Z M 7.5 24.976562 " clip-rule="nonzero"/></clipPath><clipPath id="31b9eea5d3"><path d="M 20.25 24.976562 L 94.796875 24.976562 C 98.179688 24.976562 101.421875 26.320312 103.8125 28.710938 C 106.207031 31.101562 107.546875 34.34375 107.546875 37.726562 L 107.546875 112.273438 C 107.546875 115.65625 106.207031 118.898438 103.8125 121.289062 C 101.421875 123.679688 98.179688 125.023438 94.796875 125.023438 L 20.25 125.023438 C 16.867188 125.023438 13.625 123.679688 11.234375 121.289062 C 8.84375 118.898438 7.5 115.65625 7.5 112.273438 L 7.5 37.726562 C 7.5 34.34375 8.84375 31.101562 11.234375 28.710938 C 13.625 26.320312 16.867188 24.976562 20.25 24.976562 Z M 20.25 24.976562 " clip-rule="nonzero"/></clipPath></defs><g fill="#181c31" fill-opacity="1"><g transform="translate(119.538022, 91.268455)"><g><path d="M 35.265625 -25.34375 C 38.335938 -25.34375 40.785156 -24.421875 42.609375 -22.578125 C 44.429688 -20.734375 45.34375 -17.957031 45.34375 -14.25 L 45.34375 0 L 36.609375 0 L 36.609375 -12.828125 C 36.609375 -14.578125 36.273438 -15.863281 35.609375 -16.6875 C 34.953125 -17.519531 34.023438 -17.9375 32.828125 -17.9375 C 31.515625 -17.9375 30.457031 -17.472656 29.65625 -16.546875 C 28.863281 -15.628906 28.46875 -14.238281 28.46875 -12.375 L 28.46875 0 L 19.734375 0 L 19.734375 -12.828125 C 19.734375 -16.234375 18.472656 -17.9375 15.953125 -17.9375 C 14.609375 -17.9375 13.535156 -17.472656 12.734375 -16.546875 C 11.941406 -15.628906 11.546875 -14.238281 11.546875 -12.375 L 11.546875 0 L 2.8125 0 L 2.8125 -24.921875 L 11.125 -24.921875 L 11.125 -22.296875 C 12.039062 -23.304688 13.132812 -24.066406 14.40625 -24.578125 C 15.6875 -25.085938 17.078125 -25.34375 18.578125 -25.34375 C 20.328125 -25.34375 21.890625 -25.019531 23.265625 -24.375 C 24.648438 -23.726562 25.769531 -22.742188 26.625 -21.421875 C 27.601562 -22.679688 28.84375 -23.648438 30.34375 -24.328125 C 31.851562 -25.003906 33.492188 -25.34375 35.265625 -25.34375 Z M 35.265625 -25.34375 "/></g></g></g><g fill="#181c31" fill-opacity="1"><g transform="translate(165.101408, 91.268455)"><g><path d="M 18.484375 -25.34375 C 20.753906 -25.34375 22.816406 -24.816406 24.671875 -23.765625 C 26.523438 -22.722656 27.992188 -21.226562 29.078125 -19.28125 C 30.171875 -17.34375 30.71875 -15.082031 30.71875 -12.5 C 30.71875 -9.925781 30.171875 -7.660156 29.078125 -5.703125 C 27.992188 -3.742188 26.523438 -2.234375 24.671875 -1.171875 C 22.816406 -0.117188 20.753906 0.40625 18.484375 0.40625 C 15.203125 0.40625 12.75 -0.554688 11.125 -2.484375 L 11.125 0 L 2.8125 0 L 2.8125 -34.125 L 11.546875 -34.125 L 11.546875 -22.765625 C 13.234375 -24.484375 15.546875 -25.34375 18.484375 -25.34375 Z M 16.640625 -6.53125 C 18.179688 -6.53125 19.441406 -7.054688 20.421875 -8.109375 C 21.398438 -9.171875 21.890625 -10.632812 21.890625 -12.5 C 21.890625 -14.34375 21.398438 -15.785156 20.421875 -16.828125 C 19.441406 -17.867188 18.179688 -18.390625 16.640625 -18.390625 C 15.109375 -18.390625 13.851562 -17.867188 12.875 -16.828125 C 11.894531 -15.785156 11.40625 -14.34375 11.40625 -12.5 C 11.40625 -10.632812 11.894531 -9.171875 12.875 -8.109375 C 13.851562 -7.054688 15.109375 -6.53125 16.640625 -6.53125 Z M 16.640625 -6.53125 "/></g></g></g><g fill="#181c31" fill-opacity="1"><g transform="translate(194.57244, 91.268455)"><g><path d="M 14.109375 -8.734375 L 11.546875 -6.109375 L 11.546875 0 L 2.8125 0 L 2.8125 -34.125 L 11.546875 -34.125 L 11.546875 -16.234375 L 20.46875 -24.921875 L 30.8125 -24.921875 L 20.46875 -14.25 L 31.6875 0 L 21.109375 0 Z M 14.109375 -8.734375 "/></g></g></g><g fill="#181c31" fill-opacity="1"><g transform="translate(223.629675, 91.268455)"><g/></g></g><g fill="#181c31" fill-opacity="1"><g transform="translate(234.525544, 91.268455)"><g><path d="M 29.0625 -24.921875 L 18.765625 0 L 9.75 0 L -0.5 -24.921875 L 8.46875 -24.921875 L 14.4375 -9.703125 L 20.734375 -24.921875 Z M 29.0625 -24.921875 "/></g></g></g><g fill="#181c31" fill-opacity="1"><g transform="translate(260.548222, 91.268455)"><g><path d="M 2.8125 -24.921875 L 11.546875 -24.921875 L 11.546875 0 L 2.8125 0 Z M 7.171875 -27.828125 C 5.828125 -27.828125 4.734375 -28.253906 3.890625 -29.109375 C 3.046875 -29.960938 2.625 -31.050781 2.625 -32.375 C 2.625 -33.6875 3.050781 -34.765625 3.90625 -35.609375 C 4.769531 -36.453125 5.859375 -36.875 7.171875 -36.875 C 8.492188 -36.875 9.582031 -36.453125 10.4375 -35.609375 C 11.289062 -34.765625 11.71875 -33.6875 11.71875 -32.375 C 11.71875 -31.050781 11.289062 -29.960938 10.4375 -29.109375 C 9.582031 -28.253906 8.492188 -27.828125 7.171875 -27.828125 Z M 7.171875 -27.828125 "/></g></g></g><g fill="#181c31" fill-opacity="1"><g transform="translate(272.455614, 91.268455)"><g><path d="M 11.859375 0.40625 C 9.773438 0.40625 7.722656 0.171875 5.703125 -0.296875 C 3.679688 -0.773438 2.054688 -1.394531 0.828125 -2.15625 L 3.453125 -8.140625 C 4.585938 -7.429688 5.9375 -6.867188 7.5 -6.453125 C 9.0625 -6.046875 10.609375 -5.84375 12.140625 -5.84375 C 13.546875 -5.84375 14.546875 -5.988281 15.140625 -6.28125 C 15.742188 -6.570312 16.046875 -6.992188 16.046875 -7.546875 C 16.046875 -8.097656 15.6875 -8.488281 14.96875 -8.71875 C 14.25 -8.945312 13.109375 -9.164062 11.546875 -9.375 C 9.546875 -9.625 7.847656 -9.945312 6.453125 -10.34375 C 5.066406 -10.738281 3.863281 -11.472656 2.84375 -12.546875 C 1.832031 -13.617188 1.328125 -15.125 1.328125 -17.0625 C 1.328125 -18.65625 1.800781 -20.070312 2.75 -21.3125 C 3.707031 -22.550781 5.097656 -23.53125 6.921875 -24.25 C 8.742188 -24.976562 10.925781 -25.34375 13.46875 -25.34375 C 15.28125 -25.34375 17.070312 -25.15625 18.84375 -24.78125 C 20.625 -24.414062 22.113281 -23.894531 23.3125 -23.21875 L 20.6875 -17.296875 C 18.476562 -18.515625 16.085938 -19.125 13.515625 -19.125 C 12.140625 -19.125 11.128906 -18.960938 10.484375 -18.640625 C 9.835938 -18.316406 9.515625 -17.894531 9.515625 -17.375 C 9.515625 -16.800781 9.867188 -16.394531 10.578125 -16.15625 C 11.285156 -15.925781 12.453125 -15.691406 14.078125 -15.453125 C 16.128906 -15.140625 17.828125 -14.785156 19.171875 -14.390625 C 20.523438 -13.992188 21.695312 -13.265625 22.6875 -12.203125 C 23.6875 -11.148438 24.1875 -9.671875 24.1875 -7.765625 C 24.1875 -6.203125 23.710938 -4.800781 22.765625 -3.5625 C 21.816406 -2.320312 20.410156 -1.347656 18.546875 -0.640625 C 16.691406 0.0546875 14.460938 0.40625 11.859375 0.40625 Z M 11.859375 0.40625 "/></g></g></g><g fill="#181c31" fill-opacity="1"><g transform="translate(295.121886, 91.268455)"><g><path d="M 2.8125 -24.921875 L 11.546875 -24.921875 L 11.546875 0 L 2.8125 0 Z M 7.171875 -27.828125 C 5.828125 -27.828125 4.734375 -28.253906 3.890625 -29.109375 C 3.046875 -29.960938 2.625 -31.050781 2.625 -32.375 C 2.625 -33.6875 3.050781 -34.765625 3.90625 -35.609375 C 4.769531 -36.453125 5.859375 -36.875 7.171875 -36.875 C 8.492188 -36.875 9.582031 -36.453125 10.4375 -35.609375 C 11.289062 -34.765625 11.71875 -33.6875 11.71875 -32.375 C 11.71875 -31.050781 11.289062 -29.960938 10.4375 -29.109375 C 9.582031 -28.253906 8.492188 -27.828125 7.171875 -27.828125 Z M 7.171875 -27.828125 "/></g></g></g><g fill="#181c31" fill-opacity="1"><g transform="translate(307.029278, 91.268455)"><g><path d="M 15.3125 0.40625 C 12.644531 0.40625 10.238281 -0.140625 8.09375 -1.234375 C 5.945312 -2.335938 4.265625 -3.867188 3.046875 -5.828125 C 1.835938 -7.796875 1.234375 -10.019531 1.234375 -12.5 C 1.234375 -14.957031 1.835938 -17.164062 3.046875 -19.125 C 4.265625 -21.09375 5.9375 -22.617188 8.0625 -23.703125 C 10.195312 -24.796875 12.613281 -25.34375 15.3125 -25.34375 C 18.007812 -25.34375 20.429688 -24.796875 22.578125 -23.703125 C 24.722656 -22.617188 26.394531 -21.101562 27.59375 -19.15625 C 28.789062 -17.207031 29.390625 -14.988281 29.390625 -12.5 C 29.390625 -10.019531 28.789062 -7.796875 27.59375 -5.828125 C 26.394531 -3.867188 24.722656 -2.335938 22.578125 -1.234375 C 20.429688 -0.140625 18.007812 0.40625 15.3125 0.40625 Z M 15.3125 -6.53125 C 16.84375 -6.53125 18.097656 -7.054688 19.078125 -8.109375 C 20.066406 -9.171875 20.5625 -10.632812 20.5625 -12.5 C 20.5625 -14.34375 20.066406 -15.785156 19.078125 -16.828125 C 18.097656 -17.867188 16.84375 -18.390625 15.3125 -18.390625 C 13.78125 -18.390625 12.523438 -17.867188 11.546875 -16.828125 C 10.566406 -15.785156 10.078125 -14.34375 10.078125 -12.5 C 10.078125 -10.632812 10.566406 -9.171875 11.546875 -8.109375 C 12.523438 -7.054688 13.78125 -6.53125 15.3125 -6.53125 Z M 15.3125 -6.53125 "/></g></g></g><g fill="#181c31" fill-opacity="1"><g transform="translate(335.166958, 91.268455)"><g><path d="M 19.03125 -25.34375 C 22.132812 -25.34375 24.628906 -24.421875 26.515625 -22.578125 C 28.398438 -20.734375 29.34375 -17.957031 29.34375 -14.25 L 29.34375 0 L 20.59375 0 L 20.59375 -12.828125 C 20.59375 -16.234375 19.234375 -17.9375 16.515625 -17.9375 C 15.003906 -17.9375 13.796875 -17.441406 12.890625 -16.453125 C 11.992188 -15.472656 11.546875 -14.003906 11.546875 -12.046875 L 11.546875 0 L 2.8125 0 L 2.8125 -24.921875 L 11.125 -24.921875 L 11.125 -22.203125 C 12.101562 -23.222656 13.265625 -24 14.609375 -24.53125 C 15.960938 -25.070312 17.4375 -25.34375 19.03125 -25.34375 Z M 19.03125 -25.34375 "/></g></g></g><g clip-path="url(#56574b94c0)"><g clip-path="url(#31b9eea5d3)"><path fill="#006bff" d="M 7.5 24.976562 L 107.546875 24.976562 L 107.546875 125.023438 L 7.5 125.023438 Z M 7.5 24.976562 " fill-opacity="1" fill-rule="nonzero"/></g></g><g fill="#ffffff" fill-opacity="1"><g transform="translate(11.894982, 96.858146)"><g><path d="M 31.109375 -15.1875 L 31.109375 -7.109375 L 2.734375 -18.5 L 2.734375 -26.046875 L 31.109375 -37.4375 L 31.109375 -29.375 L 13.25 -22.609375 L 13.25 -21.953125 Z M 31.109375 -15.1875 "/></g></g></g><g fill="#ffffff" fill-opacity="1"><g transform="translate(44.011617, 96.858146)"><g><path d="M 8.46875 6.578125 L 0.1875 6.578125 L 17.328125 -48.625 L 25.640625 -48.625 Z M 8.46875 6.578125 "/></g></g></g><g fill="#ffffff" fill-opacity="1"><g transform="translate(68.453455, 96.858146)"><g><path d="M 31.890625 -18.5 L 3.515625 -7.109375 L 3.515625 -15.1875 L 21.421875 -21.953125 L 21.421875 -22.609375 L 3.515625 -29.375 L 3.515625 -37.4375 L 31.890625 -26.046875 Z M 31.890625 -18.5 "/></g></g></g></svg>